<svg width="51" height="53" viewBox="0 0 51 53" fill="none" xmlns="http://www.w3.org/2000/svg">
<circle cx="25" cy="28" r="25" fill="#68B738"/>
<g clip-path="url(#clip0)">
<path d="M41.4709 0H41.232C40.8284 0.187081 40.5073 0.473924 40.3143 0.819588C39.9608 1.37738 39.6887 1.96735 39.5034 2.57732C39.4637 2.76073 39.3507 2.92811 39.1823 3.05315C39.0139 3.17818 38.7996 3.25377 38.5731 3.26804C37.8804 3.36597 37.2241 3.59243 36.6543 3.93012C36.0846 4.26781 35.6165 4.7078 35.2857 5.21649C34.831 5.87697 34.4421 6.5665 34.1229 7.27835C33.2303 9.17526 32.5451 11.134 31.7029 13.0464C31.3069 13.9175 31.288 13.9175 30.0937 13.9175C28.6669 13.9175 28.7674 13.7371 28.7486 15.0258C28.7486 15.433 28.8994 15.6392 29.4274 15.6186C29.5909 15.6186 29.836 15.5515 29.8989 15.7268C29.9617 15.9021 29.748 15.9794 29.6223 16.0825C28.877 16.7029 27.9338 17.1388 26.9006 17.3402C25.7063 17.6031 24.4869 17.8093 23.324 18.1289C20.3383 18.9485 17.5789 20.0928 15.4291 22.0309C14.1722 23.2347 13.1656 24.6001 12.4497 26.0722C10.1429 30.5258 9.024 35.2165 8.15657 39.9536C7.748 42.1753 7.45886 44.4072 7.23886 46.6546C7.12571 47.7577 7 48.8763 7 50H27.9503C27.9851 49.7731 27.9346 49.5429 27.8057 49.3402C27.6042 48.9289 27.2768 48.5672 26.8551 48.29C26.4334 48.0128 25.9316 47.8295 25.3983 47.7577C24.9583 47.6753 24.908 47.567 25.1783 47.2835C25.6191 46.801 25.9571 46.2607 26.1777 45.6856C27.2023 43.2062 27.5983 40.6186 28.0949 38.0567C28.3754 36.0999 29.1093 34.2051 30.2571 32.4742C31.1525 31.2002 32.3467 30.0842 33.7709 29.1907C34.2926 28.866 34.3114 28.866 34.3994 29.4175C34.4623 29.7835 34.4749 30.1598 34.5063 30.5309C34.6949 32.9662 34.6571 35.4097 34.3931 37.8402C34.1558 39.7242 34.1242 41.6217 34.2989 43.5103C34.5487 45.7029 35.0261 47.8739 35.7257 50H44.0857C43.9766 49.442 43.6633 48.9243 43.1874 48.5156C42.7114 48.1069 42.0953 47.8264 41.4206 47.7113C40.6327 47.6087 39.8273 47.6438 39.0571 47.8144C38.68 47.8866 38.5229 47.8144 38.4914 47.4794C38.2314 44.7505 38.443 42.0051 39.12 39.3247C39.9584 36.2304 40.6004 33.1025 41.0434 29.9536C41.2084 28.6819 41.6966 27.4528 42.4766 26.3454C43.2246 25.2526 43.8783 24.1186 44.6137 23.0206C44.9057 22.6214 45.0814 22.1723 45.1272 21.7083C45.173 21.2443 45.0876 20.7779 44.8777 20.3454C44.708 19.9794 44.5446 19.6082 44.3371 19.2577C43.7086 18.2526 43.08 17.2577 42.5017 16.2423C42.1937 15.7268 42.2629 15.6649 42.948 15.6495C43.9726 15.6495 43.9726 15.6495 43.9914 14.8041C43.9914 14.6907 43.9914 14.5773 43.9914 14.4639C43.9914 14.1082 43.828 13.9124 43.3629 13.9485C43.0486 13.9485 42.7343 13.9485 42.4074 13.9485C41.9737 13.9485 41.848 13.799 41.9549 13.433C42.1669 12.838 42.584 12.306 43.1561 11.9009C43.7282 11.4958 44.4308 11.2349 45.1794 11.1495C46.5722 11.0505 47.9752 11.1252 49.3406 11.3711C49.4981 11.4118 49.6689 11.4001 49.8159 11.3383C49.963 11.2766 50.0745 11.1699 50.1263 11.0412C50.3777 10.5258 50.6543 10.0103 50.9371 9.49484C51.0012 9.40339 51.0296 9.29801 51.0183 9.19293C51.0071 9.08785 50.9568 8.98812 50.8743 8.90722C48.8629 6.81443 46.6817 4.86082 43.7086 3.60825C43.5649 3.55754 43.4391 3.47814 43.3424 3.3773C43.2458 3.27646 43.1815 3.15738 43.1554 3.03093C42.9872 2.29408 42.7194 1.57487 42.3571 0.886598C42.1871 0.519904 41.876 0.20865 41.4709 0V0Z" fill="black"/>
</g>
<defs>
<clipPath id="clip0">
<rect width="44" height="50" fill="white" transform="translate(7)"/>
</clipPath>
</defs>
</svg>
